<svg width="28" height="28" viewBox="0 0 28 28" fill="none" xmlns="http://www.w3.org/2000/svg">
<g clip-path="url(#clip0_3373_8650)">
<path fill-rule="evenodd" clip-rule="evenodd" d="M27.3995 2.15785C26.3677 0.192253 22.9741 0.809653 20.0411 1.59505C7.29129 6.29345 2.78049 15.8415 1.19569 21.5297C1.11729 21.6725 1.06969 21.8363 1.06549 22.0113C0.438289 24.4249 0.352889 26.0335 0.351489 26.0867C0.327689 26.6649 0.777089 27.1535 1.35529 27.1773C1.37069 27.1787 1.38609 27.1787 1.40149 27.1787C1.96009 27.1787 2.42489 26.7377 2.45009 26.1735C2.45709 26.0027 2.52149 24.8281 2.91769 23.0725C6.42889 22.9241 9.96389 21.6165 13.4359 19.1749C13.7075 18.9845 13.8727 18.6765 13.8825 18.3461C13.8923 18.0143 13.7439 17.6979 13.4849 17.4935L11.8833 16.2251L17.1389 15.7099C17.3531 15.6889 17.5547 15.6035 17.7185 15.4635C17.8319 15.3683 20.5073 13.0779 23.0525 10.4081C26.9235 6.34805 28.2633 3.80425 27.3995 2.15785Z" fill="#335CFF"/>
<path fill-rule="evenodd" clip-rule="evenodd" d="M21.1783 25.0801H12.2043C11.6247 25.0801 11.1543 25.5505 11.1543 26.1301C11.1543 26.7097 11.6247 27.1801 12.2043 27.1801H21.1783C21.7579 27.1801 22.2283 26.7097 22.2283 26.1301C22.2283 25.5505 21.7579 25.0801 21.1783 25.0801Z" fill="#335CFF"/>
</g>
<defs>
<clipPath id="clip0_3373_8650">
<rect width="28" height="28" fill="white"/>
</clipPath>
</defs>
</svg>
